# xmcd CD database file
#
# Track frame offsets:
#	150
#	13402
#	27180
#	52990
#	68122
#	84060
#	97290
#	115150
#	131145
#	140392
#	158672
#	176400
#	194552
#	208277
#	224545
#	239100
#	252337
#
# Disc length: 3580 seconds
#
# Revision: 1
# Processed by: cddbd v1.4PL0 Copyright (c) Steve Scherf et al.
# Submitted via: CDex 1.50beta9
#
DISCID=010dfa11
DTITLE=Kid Ramos - Greasy Kid Stuff
DYEAR=2001
DGENRE=Blues
TTITLE0=Greasy Kid Stuff
TTITLE1=Chicken Hearted Woman
TTITLE2=Charlie's Old Highway 51 Blues
TTITLE3=Say What You Mean, Baby
TTITLE4=I Don't Care Who Knows
TTITLE5=It's Hot In Here
TTITLE6=Devil's Foot
TTITLE7=Low Down Woman
TTITLE8=Hold Me Tenderly
TTITLE9=Marion's Mood
TTITLE10=Rich Man's Woman On A Poor Man's Pay
TTITLE11=Gratitude Is Riches And Complaint Is Poverty
TTITLE12=Ain't Gonna Holler
TTITLE13=That's What She Hollered
TTITLE14=Country Woman
TTITLE15=Mean Ol' Lonesome Train
TTITLE16=Harmonica Hangover
EXTD=YEAR: 2001
EXTT0=
EXTT1=
EXTT2=
EXTT3=
EXTT4=
EXTT5=
EXTT6=
EXTT7=
EXTT8=
EXTT9=
EXTT10=
EXTT11=
EXTT12=
EXTT13=
EXTT14=
EXTT15=
EXTT16=
PLAYORDER=
